# xmcd CD database file
#
# Track frame offsets:
#	150
#	18220
#	34005
#	62192
#	100187
#
# Disc length: 2412 seconds
#
# Revision: 5
# Processed by: cddbd v1.5.2PL0 Copyright (c) Steve Scherf et al.
# Submitted via: CDex 1.51
#
DISCID=35096a05
DTITLE=Craig David - Rise and Fall
DYEAR=2003
DGENRE=R&B
TTITLE0=Rise and Fall (Radio Edit)  featuring Sting
TTITLE1=Rise and Fall (Blacksmith Hip Hop Rub featuring Fallacy)
TTITLE2=Rise and Fall (MJ Cole Remix)
TTITLE3=Rise and Fall (Kings of Souls Remix)
TTITLE4=Rise and Fall (Video) featuring Sting
EXTD=YEAR: 2003
EXTT0=
EXTT1=
EXTT2=
EXTT3=
EXTT4=
PLAYORDER=
